<svg width="2160" height="1428" viewBox="0 0 2160 1428" fill="none" xmlns="http://www.w3.org/2000/svg">
<path fill-rule="evenodd" clip-rule="evenodd" d="M525.422 1239.17C815.464 1343.32 1135.02 1192.62 1239.17 902.578C1343.32 612.536 1192.62 292.98 902.578 188.831C612.536 84.6823 292.98 235.379 188.831 525.422C84.6823 815.464 235.379 1135.02 525.422 1239.17ZM916.144 428.856C859.535 467.397 844.888 544.531 883.428 601.14C921.969 657.749 999.103 672.397 1055.71 633.856C1112.32 595.316 1126.97 518.182 1088.43 461.573C1049.89 404.963 972.754 390.316 916.144 428.856ZM1071.44 988.516C1029.51 1042.66 951.623 1052.57 897.476 1010.64C843.328 968.711 833.423 890.826 875.352 836.679C917.281 782.531 995.166 772.626 1049.31 814.555C1103.46 856.484 1113.37 934.369 1071.44 988.516ZM503.93 434.659C523.091 500.407 591.923 538.174 657.671 519.013C723.42 499.852 761.186 431.019 742.025 365.271C722.864 299.523 654.031 261.756 588.283 280.917C522.535 300.078 484.769 368.911 503.93 434.659ZM263.373 700.481C265.467 632.029 322.656 578.236 391.107 580.33C459.558 582.424 513.351 639.613 511.257 708.064C509.163 776.515 451.975 830.309 383.524 828.214C315.072 826.12 261.279 768.932 263.373 700.481ZM486.785 979.854C463.641 1044.31 497.129 1115.32 561.583 1138.46C626.037 1161.61 697.049 1128.12 720.193 1063.67C743.337 999.213 709.849 928.2 645.395 905.056C580.941 881.912 509.929 915.4 486.785 979.854Z" fill="#BCBCBC"/>
<path fill-rule="evenodd" clip-rule="evenodd" d="M1321.47 1251.33C1618.23 1334.43 1926.16 1161.22 2009.26 864.454C2092.35 567.693 1919.14 259.76 1622.38 176.666C1325.62 93.5726 1017.68 266.784 934.588 563.546C851.495 860.307 1024.71 1168.24 1321.47 1251.33ZM1653.11 415.102C1599.41 457.601 1590.33 535.586 1632.83 589.287C1675.32 642.989 1753.31 652.07 1807.01 609.572C1860.71 567.073 1869.79 489.088 1827.3 435.386C1784.8 381.685 1706.81 372.603 1653.11 415.102ZM1848.11 962.193C1810.17 1019.21 1733.2 1034.67 1676.19 996.727C1619.17 958.787 1603.71 881.812 1641.65 824.799C1679.59 767.786 1756.57 752.324 1813.58 790.264C1870.59 828.205 1886.05 905.179 1848.11 962.193ZM1242.37 450.433C1266.2 514.639 1337.56 547.375 1401.76 523.551C1465.97 499.727 1498.71 428.365 1474.88 364.159C1451.06 299.953 1379.7 267.217 1315.49 291.041C1251.28 314.865 1218.55 386.227 1242.37 450.433ZM1021.49 732.812C1018.67 664.387 1071.85 606.633 1140.28 603.816C1208.7 600.999 1266.46 654.185 1269.28 722.61C1272.09 791.035 1218.91 848.789 1150.48 851.606C1082.06 854.423 1024.3 801.237 1021.49 732.812ZM1264.35 995.455C1245.88 1061.4 1284.37 1129.83 1350.32 1148.3C1416.27 1166.76 1484.69 1128.27 1503.16 1062.32C1521.63 996.376 1483.13 927.947 1417.19 909.482C1351.24 891.016 1282.81 929.508 1264.35 995.455Z" fill="white"/>
</svg>
