<svg width="1118" height="1117" viewBox="0 0 1118 1117" fill="none" xmlns="http://www.w3.org/2000/svg">
<path fill-rule="evenodd" clip-rule="evenodd" d="M408.468 1096.08C705.229 1179.17 1013.16 1005.96 1096.26 709.201C1179.35 412.44 1006.14 104.507 709.377 21.4133C412.615 -61.6803 104.682 111.531 21.5885 408.293C-61.5052 705.054 111.707 1012.99 408.468 1096.08ZM740.11 259.849C686.409 302.348 677.327 380.333 719.826 434.034C762.325 487.736 840.31 496.817 894.011 454.319C947.713 411.82 956.794 333.835 914.296 280.133C871.797 226.432 793.812 217.351 740.11 259.849ZM935.115 806.94C897.174 863.953 820.199 879.415 763.186 841.474C706.173 803.534 690.711 726.559 728.652 669.546C766.592 612.533 843.567 597.071 900.58 635.011C957.593 672.952 973.055 749.927 935.115 806.94ZM329.372 295.18C353.196 359.386 424.558 392.122 488.764 368.298C552.969 344.474 585.705 273.112 561.881 208.906C538.058 144.7 466.695 111.964 402.49 135.788C338.284 159.612 305.548 230.974 329.372 295.18ZM108.485 577.559C105.668 509.134 158.854 451.38 227.279 448.563C295.705 445.746 353.458 498.932 356.275 567.357C359.093 635.782 305.907 693.536 237.481 696.353C169.056 699.17 111.303 645.984 108.485 577.559ZM351.345 840.202C332.88 906.149 371.371 974.578 437.318 993.044C503.265 1011.51 571.695 973.017 590.16 907.07C608.625 841.124 570.134 772.694 504.187 754.229C438.24 735.763 369.81 774.255 351.345 840.202Z" fill="#5C19AE"/>
</svg>
