<svg width="1118" height="1117" viewBox="0 0 1118 1117" fill="none" xmlns="http://www.w3.org/2000/svg">
<path fill-rule="evenodd" clip-rule="evenodd" d="M370.422 1083.92C660.464 1188.06 980.02 1037.37 1084.17 747.325C1188.32 457.283 1037.62 137.727 747.578 33.5783C457.536 -70.5706 137.98 80.1261 33.8313 370.169C-70.3177 660.211 80.379 979.767 370.422 1083.92ZM761.144 273.604C704.535 312.144 689.888 389.278 728.428 445.887C766.969 502.496 844.103 517.144 900.712 478.603C957.321 440.063 971.969 362.929 933.428 306.32C894.888 249.711 817.754 235.063 761.144 273.604ZM916.437 833.263C874.508 887.411 796.623 897.316 742.476 855.387C688.328 813.458 678.423 735.573 720.352 681.426C762.281 627.278 840.166 617.373 894.313 659.302C948.461 701.231 958.366 779.116 916.437 833.263ZM348.93 279.406C368.091 345.154 436.923 382.921 502.671 363.76C568.42 344.599 606.186 275.766 587.025 210.018C567.864 144.27 499.031 106.504 433.283 125.665C367.535 144.826 329.769 213.658 348.93 279.406ZM108.373 545.228C110.467 476.777 167.656 422.983 236.107 425.077C304.558 427.172 358.351 484.36 356.257 552.811C354.163 621.262 296.975 675.056 228.524 672.962C160.072 670.867 106.279 613.679 108.373 545.228ZM331.785 824.601C308.641 889.055 342.129 960.067 406.583 983.211C471.037 1006.36 542.049 972.867 565.193 908.414C588.337 843.96 554.849 772.947 490.395 749.803C425.941 726.659 354.929 760.147 331.785 824.601Z" fill="#CD1F96"/>
</svg>
